<?xml version="1.0" encoding="UTF-8"?>
<svg width="48" height="32" viewBox="0 0 48 32" xmlns="http://www.w3.org/2000/svg">
  <rect width="48" height="32" rx="4" fill="#fff"/>
  <path d="M35.5 13.5c0.2-1.2 0-2-0.7-2.7-0.7-0.8-2-1.1-3.7-1.1h-4.8c-0.3 0-0.6 0.2-0.7 0.5l-2 12.9c0 0.2 0.1 0.5 0.4 0.5h2.5l0.6-4h0.4c0.9 0 1.6 0.1 2.2 0.2 2.4 0.5 4-0.9 4.5-3.1 0.3-1.2 0.2-2.2-0.3-3.2z" fill="#003087"/>
  <path d="M19.5 13.5c0.2-1.2 0-2-0.7-2.7-0.7-0.8-2-1.1-3.7-1.1h-4.8c-0.3 0-0.6 0.2-0.7 0.5l-2 12.9c0 0.2 0.1 0.5 0.4 0.5h2.5l0.6-4h0.4c0.9 0 1.6 0.1 2.2 0.2 2.4 0.5 4-0.9 4.5-3.1 0.3-1.2 0.2-2.2-0.3-3.2z" fill="#009cde"/>
</svg> 