<?xml version="1.0" encoding="UTF-8"?>
<svg width="48" height="32" viewBox="0 0 48 32" xmlns="http://www.w3.org/2000/svg">
  <rect width="48" height="32" rx="4" fill="#1A1F71"/>
  <path d="M18.5 21.5H15L17.5 10.5H21L18.5 21.5Z" fill="white"/>
  <path d="M28.5 10.7C27.8 10.5 26.7 10.3 25.3 10.3C22 10.3 19.7 12 19.7 14.4C19.7 16.3 21.4 17.3 22.7 17.9C24 18.5 24.5 18.9 24.5 19.5C24.5 20.4 23.4 20.8 22.4 20.8C21 20.8 20.2 20.6 19 20.2L18.5 20L18 23C18.8 23.3 20.3 23.6 21.9 23.6C25.4 23.6 27.7 21.9 27.7 19.4C27.7 17.9 26.8 16.8 24.8 15.9C23.6 15.3 22.9 14.9 22.9 14.2C22.9 13.6 23.6 13 25 13C26.1 13 27 13.2 27.7 13.4L28.1 13.5L28.5 10.7Z" fill="white"/>
  <path d="M33 10.5H35.9L38.9 21.5H35.7C35.7 21.5 35.4 20.4 35.3 20.1H31.2L30.4 21.5H27L32.2 11.2C32.5 10.7 33 10.5 33 10.5ZM32.1 17.8L33.6 13.7L34.5 17.8H32.1Z" fill="white"/>
  <path d="M13.1 10.5L10 18.3L9.7 17.1C9.1 15.3 7.3 13.3 5.3 12.3L8.2 21.5H11.4L16.4 10.5H13.1Z" fill="white"/>
  <path d="M6.9 10.5H2L2 10.7C5.9 11.7 8.5 14.2 9.7 17.1L8.6 11.2C8.4 10.7 7.7 10.5 6.9 10.5Z" fill="#F7B600"/>
</svg> 