<?xml version="1.0" encoding="UTF-8"?>
<svg width="40" height="40" viewBox="0 0 40 40" fill="none" xmlns="http://www.w3.org/2000/svg">
  <circle cx="20" cy="20" r="20" fill="#2563EB"/>
  <path d="M32 20.5C32 20.5 28.5 27 20 27C11.5 27 8 20.5 8 20.5C8 20.5 11.5 14 20 14C28.5 14 32 20.5 32 20.5Z" stroke="white" stroke-width="2"/>
  <path d="M26 20.5C26 23.5376 23.3137 26 20 26C16.6863 26 14 23.5376 14 20.5C14 17.4624 16.6863 15 20 15C23.3137 15 26 17.4624 26 20.5Z" stroke="white" stroke-width="2"/>
  <circle cx="20" cy="20.5" r="2" fill="white"/>
  <path d="M8 12L32 29" stroke="white" stroke-width="2"/>
</svg> 